SplineFontDB: 3.2
FontName: MirnaVidovic
FullName: MirnaVidovic
FamilyName: MirnaVidovic
Weight: Regular
Copyright: Copyright (c) 2025, mirna_38b3jrr
UComments: "2025-3-18: Created with FontForge (http://fontforge.org)"
Version: 001.000
ItalicAngle: 0
UnderlinePosition: -100
UnderlineWidth: 50
Ascent: 800
Descent: 200
InvalidEm: 0
LayerCount: 3
Layer: 0 0 "Stra+AX4A-nji" 1
Layer: 1 0 "Prednji" 0
Layer: 2 0 "Stra+AX4A-nji 2" 1
XUID: [1021 927 -573933176 12231]
StyleMap: 0x0000
FSType: 0
OS2Version: 0
OS2_WeightWidthSlopeOnly: 0
OS2_UseTypoMetrics: 1
CreationTime: 1742309931
ModificationTime: 1749670230
OS2TypoAscent: 0
OS2TypoAOffset: 1
OS2TypoDescent: 0
OS2TypoDOffset: 1
OS2TypoLinegap: 90
OS2WinAscent: 0
OS2WinAOffset: 1
OS2WinDescent: 0
OS2WinDOffset: 1
HheadAscent: 0
HheadAOffset: 1
HheadDescent: 0
HheadDOffset: 1
OS2Vendor: 'PfEd'
Lookup: 258 0 0 "va" { "va-1" [150,15,0] } []
Lookup: 258 0 0 "na" { "na-1" [150,15,0] } []
MarkAttachClasses: 1
DEI: 91125
KernClass2: 1 1 "va-1"
 0 {}
KernClass2: 1 1 "na-1"
 0 {}
Encoding: UnicodeBmp
UnicodeInterp: none
NameList: AGL For New Fonts
DisplaySize: -48
AntiAlias: 1
FitToEm: 0
WinInfo: 28 28 10
BeginPrivate: 0
EndPrivate
BeginChars: 65536 21

StartChar: M
Encoding: 77 77 0
Width: 485
Flags: HW
LayerCount: 3
Fore
SplineSet
16 690 m 1
 25 702 44 707 63 707 c 0
 88 707 113 697 114 678 c 0
 123 630 166 538 207 494 c 1
 214 480 222 476 230 476 c 0
 246 476 260 496 260 496 c 1
 299 546 326 609 343 666 c 0
 349 683 376 692 403 692 c 0
 426 692 448 685 458 672 c 1
 459 617 459 563 459 508 c 0
 459 355 456 197 442 14 c 1
 425 5 405 -1 387 -1 c 0
 367 -1 348 6 333 24 c 1
 333 31 332 38 332 45 c 0
 332 133 356 271 356 357 c 0
 356 399 351 428 334 434 c 1
 301 410 281 334 277 302 c 1
 270 284 252 275 234 275 c 0
 217 275 200 283 193 299 c 0
 174 333 177 431 138 446 c 1
 124 441 119 416 119 378 c 0
 119 283 151 115 151 25 c 0
 151 23 151 22 151 20 c 0
 135 5 111 -1 88 -1 c 0
 65 -1 42 5 28 14 c 1
 18 135 4 224 4 389 c 0
 4 468 7 564 16 690 c 1
EndSplineSet
EndChar

StartChar: V
Encoding: 86 86 1
Width: 574
Flags: HW
VStem: 25 138<546.961 697.247> 427 126<626.438 685.202>
LayerCount: 3
Fore
SplineSet
25 690 m 1
 60 734 98 750 125 750 c 0
 147 750 162 739 163 726 c 0
 172 573 191 352 247 207 c 1
 341 367 387 568 427 696 c 0
 435 710 454 719 476 719 c 0
 501 719 530 707 553 678 c 1
 506 458 381 238 295 18 c 1
 274 12 248 -2 222 -2 c 0
 203 -2 184 5 166 27 c 1
 111 221 59 425 25 690 c 1
EndSplineSet
EndChar

StartChar: i
Encoding: 105 105 2
Width: 193
Flags: HW
VStem: 22 144<52.8778 429> 23 136<495.684 605.999>
LayerCount: 3
Fore
SplineSet
98 4 m 0
 43 4 22 57 22 77 c 0
 22 97 26 165 26 258 c 0
 26 308 25 365 21 426 c 1
 60 449 95 456 129 456 c 0
 143 456 157 455 171 453 c 1
 174 413 175 374 175 338 c 0
 175 230 165 145 165 113 c 0
 165 96 170 95 170 75 c 0
 170 31 135 4 98 4 c 0
31 493 m 1
 20 523 17 545 17 560 c 0
 17 574 20 583 23 591 c 1
 19 609 56 623 93 623 c 0
 115 623 138 618 153 606 c 1
 154 606 l 2
 168 606 172 590 172 569 c 0
 172 547 167 520 159 498 c 1
 144 489 123 485 100 485 c 0
 77 485 52 489 31 493 c 1
EndSplineSet
EndChar

StartChar: r
Encoding: 114 114 3
Width: 334
Flags: HW
VStem: 43 93<323.451 463.52> 55 96<19.5328 237.444>
LayerCount: 3
Fore
SplineSet
253 498 m 0
 276 498 316 478 316 443 c 0
 316 420 306 389 281 389 c 0
 278 389 274 390 270 391 c 1
 272 390 272 390 272 389 c 0
 272 381 172 384 172 317 c 0
 172 315 172 312 172 310 c 2
 172 310 165 53 164 37 c 0
 162 16 128 -5 98 -5 c 0
 77 -5 58 6 55 36 c 0
 51 246 46 109 17 504 c 1
 36 525 56 535 73 535 c 0
 97 535 118 517 131 490 c 0
 132 480 132 472 132 465 c 0
 132 457 132 451 132 444 c 0
 132 432 133 419 138 395 c 1
 158 435 154 413 199 474 c 1
 219 492 237 498 253 498 c 0
EndSplineSet
EndChar

StartChar: n
Encoding: 110 110 4
Width: 528
Flags: HW
LayerCount: 3
Fore
SplineSet
30 348 m 1
 27 486 l 1
 33 504 57 518 81 518 c 0
 105 518 131 504 141 468 c 1
 141 396 l 1
 192 437 242 454 289 454 c 0
 353 454 411 421 456 369 c 1
 490 351 503 254 503 161 c 0
 503 116 500 72 495 39 c 0
 495 27 459 -6 423 -6 c 0
 403 -6 383 5 369 36 c 1
 384 204 l 1
 381 267 327 311 270 311 c 0
 228 311 184 286 159 225 c 1
 141 51 l 1
 144 23 117 8 88 8 c 0
 59 8 27 23 24 54 c 0
 28 200 29 209 30 348 c 1
EndSplineSet
EndChar

StartChar: a
Encoding: 97 97 5
Width: 516
Flags: HW
LayerCount: 3
Fore
SplineSet
478 38 m 1
 460 25 438 6 413 6 c 0
 398 6 381 14 364 35 c 1
 355 77 l 1
 322 43 271 12 209 12 c 0
 164 12 114 28 59 72 c 1
 25 136 2 197 2 255 c 0
 2 306 19 355 59 404 c 1
 92 433 167 469 237 469 c 0
 276 469 314 458 342 428 c 1
 360 476 l 1
 370 489 389 495 409 495 c 0
 436 495 466 483 480 455 c 1
 488 356 492 294 492 234 c 0
 492 177 488 121 478 38 c 1
346 240 m 0
 346 257 342 358 235 358 c 0
 200 358 162 343 133 308 c 0
 124 300 115 270 115 238 c 0
 115 123 224 120 236 120 c 0
 267 120 346 130 346 240 c 0
EndSplineSet
EndChar

StartChar: d
Encoding: 100 100 6
Width: 544
Flags: HW
LayerCount: 3
Fore
SplineSet
20 215 m 0
 20 292 43 458 240 458 c 0
 293 458 346 443 376 413 c 1
 399 680 l 1
 412 691 428 697 444 697 c 0
 467 697 489 686 502 665 c 1
 502 665 502 393 502 211 c 0
 502 120 502 52 502 51 c 0
 504 37 476 24 449 24 c 0
 424 24 401 35 402 67 c 1
 399 92 l 1
 377 58 l 1
 347 26 284 7 220 7 c 0
 164 7 108 22 74 57 c 1
 39 84 20 147 20 215 c 0
137 237 m 0
 137 169 191 116 257 116 c 0
 295 116 327 134 327 154 c 0
 327 156 326 157 326 159 c 1
 327 159 329 158 330 158 c 0
 347 158 357 192 357 227 c 0
 357 262 347 299 324 305 c 1
 299 327 270 336 242 336 c 0
 213 336 185 326 164 309 c 0
 151 299 137 271 137 237 c 0
EndSplineSet
EndChar

StartChar: o
Encoding: 111 111 7
Width: 555
Flags: HW
LayerCount: 3
Fore
SplineSet
71 430 m 1
 122 484 193 503 262 503 c 0
 378 503 492 449 509 415 c 1
 536 384 546 331 546 275 c 0
 546 191 523 101 500 70 c 0
 465 23 382 -3 295 -3 c 0
 209 -3 119 22 68 78 c 1
 27 134 12 192 12 244 c 0
 12 324 46 393 71 430 c 1
296 99 m 0
 376 99 426 157 426 232 c 0
 426 270 413 308 394 340 c 1
 372 368 328 381 282 381 c 0
 234 381 185 366 160 337 c 0
 142 312 132 279 132 245 c 0
 132 201 148 158 184 136 c 0
 226 109 264 99 296 99 c 0
EndSplineSet
EndChar

StartChar: v
Encoding: 118 118 8
Width: 394
Flags: HW
LayerCount: 3
Fore
SplineSet
16 448 m 1
 24 466 57 478 85 478 c 0
 101 478 115 474 121 465 c 0
 142 393 178 231 211 213 c 1
 238 252 254 390 257 459 c 1
 264 473 279 479 297 479 c 0
 328 479 365 462 376 441 c 1
 263 36 l 2
 257 17 230 7 201 7 c 0
 177 7 151 14 137 28 c 1
 16 448 l 1
EndSplineSet
EndChar

StartChar: cacute
Encoding: 263 263 9
Width: 455
Flags: HW
LayerCount: 3
Fore
SplineSet
323 657 m 1
 336 660 345 662 353 662 c 0
 369 662 380 653 404 627 c 0
 412 624 417 621 417 613 c 0
 417 599 399 570 350 501 c 0
 345 498 339 497 332 497 c 0
 298 497 249 528 251 543 c 0
 250 585 298 606 323 657 c 1
1 196 m 0
 1 335 112 471 219 471 c 0
 352 470 391 382 391 372 c 0
 391 347 348 318 348 318 c 1
 315 336 282 352 251 352 c 0
 186 352 113 275 113 229 c 0
 113 225 113 222 114 219 c 0
 112 216 112 212 112 208 c 0
 112 173 180 120 230 120 c 0
 234 120 238 120 242 121 c 0
 329 124 318 170 378 215 c 1
 404 213 437 187 437 166 c 0
 437 161 436 157 432 153 c 0
 414 85 365 9 225 9 c 0
 190 9 1 62 1 196 c 0
EndSplineSet
EndChar

StartChar: Scaron
Encoding: 352 352 10
Width: 501
Flags: HW
LayerCount: 3
Fore
SplineSet
117 251 m 1
 137 211 205 109 279 109 c 0
 328 109 364 159 364 214 c 0
 364 229 362 244 356 258 c 0
 332 327 62 390 44 593 c 1
 59 708 116 759 234 764 c 0
 235 764 237 764 239 764 c 0
 290 764 413 675 462 605 c 1
 462 569 435 549 400 549 c 0
 394 549 387 550 381 551 c 1
 340 602 281 648 242 648 c 0
 212 648 165 608 165 571 c 0
 165 562 168 553 174 545 c 0
 261 482 437 384 464 264 c 0
 470 252 473 237 473 220 c 0
 473 129 396 -21 277 -21 c 0
 274 -21 271 -21 268 -21 c 0
 130 0 76 123 3 245 c 1
 4 270 27 286 54 286 c 0
 76 286 100 275 117 251 c 1
119 927 m 1
 127 953 146 965 168 965 c 0
 176 965 185 963 194 960 c 1
 205 935 234 892 253 882 c 1
 266 900 l 2
 278 916 266 900 293 951 c 0
 300 964 310 969 320 969 c 0
 337 969 355 955 355 942 c 0
 355 941 338 869 293 816 c 0
 281 806 267 801 252 801 c 0
 236 801 219 807 203 822 c 0
 179 844 156 859 119 927 c 1
EndSplineSet
EndChar

StartChar: scaron
Encoding: 353 353 11
Width: 440
Flags: HW
LayerCount: 3
Fore
SplineSet
74 342 m 0
 74 451 176 488 235 488 c 0
 303 488 361 437 390 365 c 1
 390 339 380 317 365 317 c 0
 344 317 294 392 239 392 c 0
 238 392 237 392 236 392 c 0
 232 394 228 395 223 395 c 0
 204 395 181 379 181 358 c 0
 181 351 183 343 190 334 c 1
 236 314 374 212 382 162 c 1
 382 68 302 0 244 0 c 0
 184 0 116 15 44 128 c 1
 44 142 51 173 85 173 c 0
 94 173 106 171 119 165 c 1
 119 135 174 86 222 81 c 1
 282 87 287 122 297 162 c 1
 236 198 96 246 74 335 c 0
 74 337 74 340 74 342 c 0
141 641 m 1
 153 657 165 663 179 663 c 0
 192 663 206 657 222 647 c 1
 221 647 220 647 220 646 c 0
 220 643 236 632 247 632 c 0
 254 632 259 636 258 647 c 0
 260 660 279 667 296 667 c 0
 313 667 328 661 328 647 c 0
 328 645 328 643 327 641 c 2
 276 548 l 2
 273 536 267 531 257 531 c 0
 244 531 227 541 210 560 c 2
 141 641 l 1
EndSplineSet
EndChar

StartChar: Cacute
Encoding: 262 262 12
Width: 601
Flags: HW
LayerCount: 3
Fore
SplineSet
545 680 m 0
 547 674 548 667 548 659 c 0
 548 618 516 565 474 565 c 0
 472 565 468 566 466 566 c 0
 437 611 388 619 333 619 c 0
 318 619 302 619 286 618 c 1
 287 616 195 606 160 531 c 0
 152 515 149 478 149 435 c 0
 149 344 164 222 186 192 c 0
 211 150 243 135 279 135 c 0
 282 135 286 135 289 135 c 0
 367 135 442 204 489 276 c 1
 506 281 520 284 532 284 c 0
 560 284 574 269 584 239 c 1
 477 78 402 9 280 9 c 0
 219 9 81 60 41 167 c 1
 23 232 6 297 6 380 c 0
 6 445 16 521 44 617 c 1
 89 686 138 762 295 786 c 1
 372 786 458 752 545 680 c 0
389 1007 m 1
 422 1007 486 971 486 953 c 1
 467 926 427 834 394 807 c 1
 369 819 320 843 303 861 c 1
 332 894 375 981 389 1007 c 1
EndSplineSet
EndChar

StartChar: Ccaron
Encoding: 268 268 13
Width: 559
Flags: HW
LayerCount: 3
Fore
SplineSet
166 1005 m 1
 177 1020 196 1031 212 1031 c 0
 218 1031 224 1029 229 1026 c 0
 249 991 242 956 298 921 c 1
 331 959 331 987 340 1017 c 1
 348 1019 356 1021 363 1021 c 0
 385 1021 403 1010 412 987 c 1
 410 935 379 888 355 831 c 1
 338 823 317 815 296 815 c 0
 280 815 263 820 247 831 c 1
 215 889 191 947 166 1005 c 1
303 764 m 0
 403 742 471 698 513 617 c 0
 514 611 514 605 514 600 c 0
 514 570 499 547 453 536 c 1
 433 571 368 621 294 621 c 0
 266 621 236 614 207 596 c 1
 165 557 144 490 144 416 c 0
 144 342 165 262 207 194 c 1
 234 174 267 165 300 165 c 0
 368 165 438 204 466 272 c 1
 471 273 476 274 481 274 c 0
 513 274 530 239 541 197 c 1
 526 121 451 5 341 5 c 0
 339 5 336 5 334 5 c 0
 332 5 329 5 326 5 c 0
 261 5 83 57 69 155 c 1
 40 189 21 307 21 427 c 0
 21 516 32 606 55 663 c 1
 74 747 182 767 257 767 c 0
 275 767 291 766 303 764 c 0
EndSplineSet
EndChar

StartChar: ccaron
Encoding: 269 269 14
Width: 376
Flags: HW
LayerCount: 3
Fore
SplineSet
62 616 m 1
 75 627 83 640 119 640 c 1
 142 612 134 573 170 573 c 0
 193 573 191 600 200 628 c 1
 218 640 230 646 239 646 c 0
 249 646 258 639 272 628 c 1
 265 579 248 559 212 526 c 1
 187 515 183 503 169 503 c 0
 163 503 155 505 143 511 c 0
 110 532 71 550 62 616 c 1
197 473 m 0
 263 473 340 385 343 340 c 0
 343 317 325 299 306 299 c 0
 277 299 250 354 196 364 c 1
 148 355 133 347 119 318 c 0
 106 298 96 254 96 218 c 0
 96 196 99 177 109 168 c 1
 121 122 208 121 216 121 c 0
 252 121 284 148 288 187 c 1
 294 191 300 192 307 192 c 0
 330 192 357 174 366 149 c 1
 356 93 338 15 222 0 c 1
 162 9 52 43 20 125 c 1
 10 135 4 180 4 230 c 0
 4 295 13 368 30 386 c 1
 57 441 142 473 197 473 c 0
EndSplineSet
EndChar

StartChar: Zcaron
Encoding: 381 381 15
Width: 634
Flags: HW
LayerCount: 3
Fore
SplineSet
199 969 m 1
 203 981 222 1005 249 1005 c 0
 254 1005 259 1004 265 1002 c 0
 292 972 300 921 328 897 c 1
 344 897 358 903 358 903 c 1
 376 920 394 959 403 990 c 1
 410 998 419 1001 429 1001 c 0
 461 1001 499 969 499 969 c 1
 480 957 420 826 388 819 c 0
 371 815 361 812 352 812 c 0
 339 812 327 817 298 831 c 0
 259 849 220 924 199 969 c 1
40 735 m 1
 108 749 199 753 288 753 c 0
 414 753 538 744 598 735 c 1
 602 726 604 716 604 704 c 0
 604 663 581 611 544 585 c 1
 448 462 289 273 226 135 c 1
 248 127 289 124 335 124 c 0
 412 124 505 132 556 138 c 1
 562 119 565 100 565 81 c 0
 565 54 559 27 547 0 c 1
 457 -8 367 -12 277 -12 c 0
 192 -12 107 -8 22 0 c 1
 14 11 10 25 10 42 c 0
 10 68 19 98 34 123 c 0
 121 275 256 465 394 603 c 1
 353 620 291 626 225 626 c 0
 160 626 91 620 31 612 c 1
 24 630 21 650 21 670 c 0
 21 695 27 720 40 735 c 1
EndSplineSet
EndChar

StartChar: zcaron
Encoding: 382 382 16
Width: 451
Flags: HW
LayerCount: 3
Fore
SplineSet
355 636 m 0
 354 498 255 498 255 498 c 1
 236 498 218 507 193 525 c 1
 158 575 147 586 139 636 c 1
 149 651 155 668 187 668 c 0
 193 668 200 667 208 666 c 1
 223 630 202 599 235 570 c 1
 256 561 l 1
 286 594 267 627 280 660 c 1
 288 667 297 670 307 670 c 0
 329 670 353 655 355 636 c 0
49 444 m 1
 117 454 181 464 246 464 c 0
 295 464 346 458 400 444 c 1
 412 433 420 415 420 396 c 0
 420 378 413 360 397 348 c 0
 325 303 221 211 178 135 c 1
 197 130 219 128 242 128 c 0
 284 128 332 135 382 144 c 1
 384 130 386 117 386 103 c 0
 386 82 381 60 367 39 c 1
 311 32 251 28 193 28 c 0
 143 28 93 31 49 39 c 0
 30 42 24 57 24 75 c 0
 24 102 39 135 46 135 c 1
 101 211 198 315 277 363 c 1
 264 369 243 372 219 372 c 0
 163 372 89 359 43 357 c 1
 40 371 37 386 37 400 c 0
 37 415 40 429 49 444 c 1
EndSplineSet
EndChar

StartChar: Dcroat
Encoding: 272 272 17
Width: 580
Flags: HW
LayerCount: 3
Fore
SplineSet
12 425 m 0
 12 472 26 488 61 488 c 0
 72 488 84 486 94 483 c 1
 95 532 96 582 96 631 c 0
 96 680 95 729 91 777 c 1
 132 800 208 811 281 811 c 0
 503 811 517 729 532 636 c 1
 550 584 556 497 556 410 c 0
 556 312 548 213 541 159 c 0
 530 66 471 24 424 0 c 1
 426 -1 410 -1 384 -1 c 0
 322 -1 204 0 152 0 c 2
 125 -0 l 2
 107 0 91 188 91 288 c 0
 91 321 93 345 97 348 c 1
 87 352 77 354 65 354 c 0
 50 354 33 351 32 351 c 0
 22 351 12 390 12 425 c 0
272 416 m 0
 272 402 270 348 242 348 c 0
 230 348 215 352 203 352 c 0
 197 352 191 351 187 348 c 1
 189 276 188 210 208 150 c 1
 239 123 275 112 308 112 c 0
 345 112 377 126 391 147 c 0
 392 147 392 147 393 147 c 0
 423 147 415 179 424 210 c 0
 439 265 447 339 447 407 c 0
 447 470 440 528 427 561 c 1
 426 594 424 612 364 651 c 1
 355 667 316 678 278 678 c 0
 243 678 208 668 196 642 c 0
 184 621 180 602 180 580 c 0
 180 551 188 520 193 483 c 1
 199 486 209 489 220 489 c 0
 231 489 244 486 254 480 c 0
 266 473 272 444 272 416 c 0
EndSplineSet
EndChar

StartChar: dcroat
Encoding: 273 273 18
Width: 583
Flags: HW
LayerCount: 3
Fore
SplineSet
203 565 m 0
 203 606 228 615 287 615 c 2
 346 615 l 1
 361 762 l 1
 377 772 392 776 406 776 c 0
 428 776 447 765 463 747 c 1
 447 615 l 1
 459 617 473 620 488 620 c 0
 503 620 520 617 537 606 c 0
 551 597 562 561 562 533 c 0
 562 515 557 501 545 501 c 0
 535 501 506 521 472 521 c 0
 457 521 445 516 444 501 c 0
 443 482 443 463 443 443 c 0
 443 350 450 249 450 162 c 0
 450 125 449 90 445 59 c 0
 443 40 428 32 412 32 c 0
 394 32 375 42 370 58 c 0
 362 74 364 87 346 111 c 1
 336 95 328 79 304 63 c 1
 266 47 219 36 175 36 c 0
 129 36 86 48 55 75 c 1
 34 103 13 147 13 197 c 0
 13 275 69 376 179 376 c 0
 225 376 271 359 313 336 c 1
 318 513 l 1
 301 524 283 526 266 526 c 0
 254 526 241 525 229 525 c 0
 213 525 203 545 203 565 c 0
223 121 m 0
 263 121 297 139 297 202 c 0
 297 228 290 254 274 264 c 0
 249 280 217 287 190 287 c 0
 170 287 153 283 142 276 c 1
 127 257 117 228 117 202 c 0
 117 183 122 166 136 156 c 1
 151 135 189 121 223 121 c 0
EndSplineSet
EndChar

StartChar: p
Encoding: 112 112 19
Width: 430
Flags: HW
LayerCount: 3
Fore
SplineSet
39 462 m 0
 50 470 87 477 133 477 c 0
 244 477 411 438 411 285 c 0
 411 72 189 122 189 54 c 0
 189 52 198 -64 198 -133 c 0
 198 -154 197 -170 195 -177 c 0
 191 -192 161 -198 130 -198 c 0
 99 -198 68 -192 60 -183 c 0
 49 -170 18 125 18 312 c 0
 18 391 24 451 39 462 c 0
200 379 m 0
 131 379 127 296 127 276 c 0
 127 243 137 213 156 207 c 1
 174 195 190 191 205 191 c 0
 226 191 245 199 267 207 c 0
 297 218 302 260 302 290 c 0
 302 309 300 324 300 324 c 1
 284 348 241 379 200 379 c 0
EndSplineSet
EndChar

